# xmcd CD database file
# Copyright (C) 1993-1998 Ti Kan
#
# Track frame offsets:
#     150
#     14002
#     25625
#     38727
#     52090
#     65892
#     82572
#     95552
#     109320
#     122195
#
# Disc length: 1850 seconds
#
# Revision: 0
# Processed by: cddbd v1.4b41PL1 Copyright (c) Steve Scherf et al.
# Submitted via: Clarion 0.9.5
#
DISCID=8207380a
DTITLE=Tennessee Ernie Ford and Glen Campbell - Ernie Sings and Glen Picks
DYEAR=1900
DGENRE=
TTITLE0=Trouble In Mind
TTITLE1=(I'd Be) A Legend In My Time
TTITLE2=Here comes My Baby Back Again
TTITLE3=There Goes My Everything
TTITLE4=She called Me Baby
TTITLE5=I Gotta Have My Baby Back
TTITLE6=Nobody Wins
TTITLE7=Loving Her Was Easier
TTITLE8=I Really Don't Want To Know
TTITLE9=For The Good Times
EXTD=
EXTT0=
EXTT1=
EXTT2=
EXTT3=
EXTT4=
EXTT5=
EXTT6=
EXTT7=
EXTT8=
EXTT9=
PLAYORDER=
